# made by JoJo Autoboy#8463 
# hello dark/game rippers
mtllib toliet.mtl
o Cylinder
v 0.004662 0.012438 -0.488109
v 0.004662 0.999062 -0.488109
v 0.102276 0.012438 -0.478606
v 0.102276 0.999062 -0.478606
v 0.196139 0.012438 -0.450462
v 0.196139 0.999062 -0.450462
v 0.282643 0.012438 -0.404758
v 0.282643 0.999062 -0.404758
v 0.358465 0.012438 -0.343252
v 0.358465 0.999062 -0.343252
v 0.420690 0.012438 -0.268306
v 0.420690 0.999062 -0.268306
v 0.466928 0.012438 -0.182802
v 0.466928 0.999062 -0.182802
v 0.495401 0.012438 -0.090023
v 0.495401 0.999062 -0.090023
v 0.505015 0.012438 0.006463
v 0.505015 0.999062 0.006463
v 0.495401 0.012438 0.102949
v 0.495401 0.999062 0.102949
v 0.466928 0.012438 0.195727
v 0.466928 0.999062 0.195727
v 0.420690 0.012438 0.281232
v 0.420690 0.999062 0.281232
v 0.358465 0.012438 0.356178
v 0.358465 0.999062 0.356178
v 0.282643 0.012438 0.417684
v 0.282643 0.999062 0.417684
v 0.196139 0.012438 0.463388
v 0.196139 0.999062 0.463388
v 0.102276 0.012438 0.491531
v 0.102276 0.999062 0.491531
v 0.004662 0.012438 0.501034
v 0.004662 0.999062 0.501034
v -0.092952 0.012438 0.491531
v -0.092952 0.999062 0.491531
v -0.186814 0.012438 0.463387
v -0.186814 0.999062 0.463387
v -0.273319 0.012438 0.417684
v -0.273319 0.999062 0.417684
v -0.349140 0.012438 0.356178
v -0.349140 0.999062 0.356178
v -0.411366 0.012438 0.281232
v -0.411366 0.999062 0.281232
v -0.457603 0.012438 0.195727
v -0.457603 0.999062 0.195727
v -0.486076 0.012438 0.102949
v -0.486076 0.999062 0.102949
v -0.495690 0.012438 0.006462
v -0.495690 0.999062 0.006462
v -0.486076 0.012438 -0.090024
v -0.486076 0.999062 -0.090024
v -0.457603 0.012438 -0.182802
v -0.457603 0.999062 -0.182802
v -0.411365 0.012438 -0.268307
v -0.411365 0.999062 -0.268307
v -0.349140 0.012438 -0.343253
v -0.349140 0.999062 -0.343253
v -0.273318 0.012438 -0.404759
v -0.273318 0.999062 -0.404759
v -0.186813 0.012438 -0.450462
v -0.186813 0.999062 -0.450462
v -0.092951 0.012438 -0.478606
v -0.092951 0.999062 -0.478606
v 0.004662 0.012438 -0.146854
v 0.004662 0.999062 -0.146854
v 0.034928 0.012438 -0.143912
v 0.034928 0.999062 -0.143912
v 0.064024 0.012438 -0.135192
v 0.064024 0.999062 -0.135192
v 0.090840 0.012438 -0.121024
v 0.090840 0.999062 -0.121024
v 0.114349 0.012438 -0.101957
v 0.114349 0.999062 -0.101957
v 0.133639 0.012438 -0.078719
v 0.133639 0.999062 -0.078719
v 0.147973 0.012438 -0.052213
v 0.147973 0.999062 -0.052213
v 0.156795 0.012438 -0.023453
v 0.156795 0.999062 -0.023453
v 0.159772 0.012438 0.006463
v 0.159772 0.999062 0.006463
v 0.156795 0.012438 0.036379
v 0.156795 0.999062 0.036379
v 0.147973 0.012438 0.065139
v 0.147973 0.999062 0.065139
v 0.133639 0.012438 0.091645
v 0.133639 0.999062 0.091645
v 0.114349 0.012438 0.114882
v 0.114349 0.999062 0.114882
v 0.090840 0.012438 0.133949
v 0.090840 0.999062 0.133949
v 0.064024 0.012438 0.148117
v 0.064024 0.999062 0.148117
v 0.034928 0.012438 0.156838
v 0.034928 0.999062 0.156838
v 0.004662 0.012438 0.159791
v 0.004662 0.999062 0.159791
v -0.025604 0.012438 0.156838
v -0.025604 0.999062 0.156838
v -0.054700 0.012438 0.148117
v -0.054700 0.999062 0.148117
v -0.081516 0.012438 0.133949
v -0.081516 0.999062 0.133949
v -0.105025 0.012438 0.114882
v -0.105025 0.999062 0.114882
v -0.124314 0.012438 0.091645
v -0.124314 0.999062 0.091645
v -0.138648 0.012438 0.065138
v -0.138648 0.999062 0.065138
v -0.147471 0.012438 0.036379
v -0.147471 0.999062 0.036379
v -0.150457 0.012438 0.006462
v -0.150457 0.999062 0.006462
v -0.147470 0.012438 -0.023454
v -0.147470 0.999062 -0.023454
v -0.138648 0.012438 -0.052214
v -0.138648 0.999062 -0.052214
v -0.124314 0.012438 -0.078720
v -0.124314 0.999062 -0.078720
v -0.105024 0.012438 -0.101957
v -0.105024 0.999062 -0.101957
v -0.081515 0.012438 -0.121024
v -0.081515 0.999062 -0.121024
v -0.054699 0.012438 -0.135192
v -0.054699 0.999062 -0.135192
v -0.025603 0.012438 -0.143913
v -0.025603 0.999062 -0.143913
v 0.004662 0.999062 -0.198844
v 0.045189 0.999062 -0.194902
v 0.084152 0.999062 -0.183222
v 0.120061 0.999062 -0.164250
v 0.151540 0.999062 -0.138718
v 0.177371 0.999062 -0.107603
v 0.196565 0.999062 -0.072108
v 0.208381 0.999062 -0.033595
v 0.212369 0.999062 0.006463
v 0.208381 0.999062 0.046521
v 0.196565 0.999062 0.085034
v 0.177371 0.999062 0.120528
v 0.151540 0.999062 0.151643
v 0.120061 0.999062 0.177176
v 0.084152 0.999062 0.196148
v 0.045188 0.999062 0.207828
v 0.004662 0.999062 0.211778
v -0.035864 0.999062 0.207828
v -0.074827 0.999062 0.196148
v -0.110737 0.999062 0.177176
v -0.142215 0.999062 0.151643
v -0.168046 0.999062 0.120528
v -0.187240 0.999062 0.085033
v -0.199056 0.999062 0.046520
v -0.203053 0.999062 0.006462
v -0.199056 0.999062 -0.033596
v -0.187240 0.999062 -0.072109
v -0.168046 0.999062 -0.107603
v -0.142215 0.999062 -0.138718
v -0.110736 0.999062 -0.164251
v -0.074826 0.999062 -0.183223
v -0.035863 0.999062 -0.194902
v 0.004662 0.012438 -0.200436
v 0.045503 0.012438 -0.196464
v 0.084768 0.012438 -0.184693
v 0.120956 0.012438 -0.165574
v 0.152678 0.012438 -0.139843
v 0.178710 0.012438 -0.108487
v 0.198053 0.012438 -0.072717
v 0.209961 0.012438 -0.033906
v 0.213979 0.012438 0.006463
v 0.209961 0.012438 0.046831
v 0.198053 0.012438 0.085643
v 0.178710 0.012438 0.121413
v 0.152678 0.012438 0.152769
v 0.120956 0.012438 0.178499
v 0.084768 0.012438 0.197619
v 0.045503 0.012438 0.209389
v 0.004662 0.012438 0.213370
v -0.036178 0.012438 0.209389
v -0.075443 0.012438 0.197619
v -0.111631 0.012438 0.178499
v -0.143354 0.012438 0.152769
v -0.169385 0.012438 0.121412
v -0.188728 0.012438 0.085642
v -0.200636 0.012438 0.046831
v -0.204663 0.012438 0.006462
v -0.200636 0.012438 -0.033906
v -0.188728 0.012438 -0.072718
v -0.169385 0.012438 -0.108488
v -0.143353 0.012438 -0.139844
v -0.111630 0.012438 -0.165574
v -0.075442 0.012438 -0.184693
v -0.036177 0.012438 -0.196464
vt 1.000000 0.500000
vt 1.000000 1.000000
vt 0.968750 1.000000
vt 0.968750 0.500000
vt 0.937500 1.000000
vt 0.937500 0.500000
vt 0.906250 1.000000
vt 0.906250 0.500000
vt 0.875000 1.000000
vt 0.875000 0.500000
vt 0.843750 1.000000
vt 0.843750 0.500000
vt 0.812500 1.000000
vt 0.812500 0.500000
vt 0.781250 1.000000
vt 0.781250 0.500000
vt 0.750000 1.000000
vt 0.750000 0.500000
vt 0.718750 1.000000
vt 0.718750 0.500000
vt 0.687500 1.000000
vt 0.687500 0.500000
vt 0.656250 1.000000
vt 0.656250 0.500000
vt 0.625000 1.000000
vt 0.625000 0.500000
vt 0.593750 1.000000
vt 0.593750 0.500000
vt 0.562500 1.000000
vt 0.562500 0.500000
vt 0.531250 1.000000
vt 0.531250 0.500000
vt 0.500000 1.000000
vt 0.500000 0.500000
vt 0.468750 1.000000
vt 0.468750 0.500000
vt 0.437500 1.000000
vt 0.437500 0.500000
vt 0.406250 1.000000
vt 0.406250 0.500000
vt 0.375000 1.000000
vt 0.375000 0.500000
vt 0.343750 1.000000
vt 0.343750 0.500000
vt 0.312500 1.000000
vt 0.312500 0.500000
vt 0.281250 1.000000
vt 0.281250 0.500000
vt 0.250000 1.000000
vt 0.250000 0.500000
vt 0.218750 1.000000
vt 0.218750 0.500000
vt 0.187500 1.000000
vt 0.187500 0.500000
vt 0.156250 1.000000
vt 0.156250 0.500000
vt 0.125000 1.000000
vt 0.125000 0.500000
vt 0.093750 1.000000
vt 0.093750 0.500000
vt 0.062500 1.000000
vt 0.062500 0.500000
vt 0.031250 1.000000
vt 0.031250 0.500000
vt 0.000000 1.000000
vt 0.000000 0.500000
vt 0.031250 1.000000
vt 0.000000 1.000000
vt 0.062500 1.000000
vt 0.093750 1.000000
vt 0.125000 1.000000
vt 0.156250 1.000000
vt 0.187500 1.000000
vt 0.218750 1.000000
vt 0.250000 1.000000
vt 0.281250 1.000000
vt 0.312500 1.000000
vt 0.343750 1.000000
vt 0.375000 1.000000
vt 0.406250 1.000000
vt 0.437500 1.000000
vt 0.468750 1.000000
vt 0.500000 1.000000
vt 0.531250 1.000000
vt 0.562500 1.000000
vt 0.593750 1.000000
vt 0.625000 1.000000
vt 0.656250 1.000000
vt 0.687500 1.000000
vt 0.718750 1.000000
vt 0.750000 1.000000
vt 0.781250 1.000000
vt 0.812500 1.000000
vt 0.843750 1.000000
vt 0.875000 1.000000
vt 0.906250 1.000000
vt 0.937500 1.000000
vt 0.968750 1.000000
vt 1.000000 1.000000
vt 0.000000 0.500000
vt 0.031250 0.500000
vt 0.062500 0.500000
vt 0.093750 0.500000
vt 0.125000 0.500000
vt 0.156250 0.500000
vt 0.187500 0.500000
vt 0.218750 0.500000
vt 0.250000 0.500000
vt 0.281250 0.500000
vt 0.312500 0.500000
vt 0.343750 0.500000
vt 0.375000 0.500000
vt 0.406250 0.500000
vt 0.437500 0.500000
vt 0.468750 0.500000
vt 0.500000 0.500000
vt 0.531250 0.500000
vt 0.562500 0.500000
vt 0.593750 0.500000
vt 0.625000 0.500000
vt 0.656250 0.500000
vt 0.687500 0.500000
vt 0.718750 0.500000
vt 0.750000 0.500000
vt 0.781250 0.500000
vt 0.812500 0.500000
vt 0.843750 0.500000
vt 0.875000 0.500000
vt 0.906250 0.500000
vt 0.937500 0.500000
vt 0.968750 0.500000
vt 1.000000 0.500000
vt 1.000000 0.500000
vt 0.968750 0.500000
vt 0.968750 1.000000
vt 1.000000 1.000000
vt 0.937500 0.500000
vt 0.937500 1.000000
vt 0.906250 0.500000
vt 0.906250 1.000000
vt 0.875000 0.500000
vt 0.875000 1.000000
vt 0.843750 0.500000
vt 0.843750 1.000000
vt 0.812500 0.500000
vt 0.812500 1.000000
vt 0.781250 0.500000
vt 0.781250 1.000000
vt 0.750000 0.500000
vt 0.750000 1.000000
vt 0.718750 0.500000
vt 0.718750 1.000000
vt 0.687500 0.500000
vt 0.687500 1.000000
vt 0.656250 0.500000
vt 0.656250 1.000000
vt 0.625000 0.500000
vt 0.625000 1.000000
vt 0.593750 0.500000
vt 0.593750 1.000000
vt 0.562500 0.500000
vt 0.562500 1.000000
vt 0.531250 0.500000
vt 0.531250 1.000000
vt 0.500000 0.500000
vt 0.500000 1.000000
vt 0.468750 0.500000
vt 0.468750 1.000000
vt 0.437500 0.500000
vt 0.437500 1.000000
vt 0.406250 0.500000
vt 0.406250 1.000000
vt 0.375000 0.500000
vt 0.375000 1.000000
vt 0.343750 0.500000
vt 0.343750 1.000000
vt 0.312500 0.500000
vt 0.312500 1.000000
vt 0.281250 0.500000
vt 0.281250 1.000000
vt 0.250000 0.500000
vt 0.250000 1.000000
vt 0.218750 0.500000
vt 0.218750 1.000000
vt 0.187500 0.500000
vt 0.187500 1.000000
vt 0.156250 0.500000
vt 0.156250 1.000000
vt 0.125000 0.500000
vt 0.125000 1.000000
vt 0.093750 0.500000
vt 0.093750 1.000000
vt 0.062500 0.500000
vt 0.062500 1.000000
vt 0.031250 0.500000
vt 0.031250 1.000000
vt 0.000000 0.500000
vt 0.000000 1.000000
vn 0.0969 0.0000 -0.9953
vn 0.2872 0.0000 -0.9579
vn 0.4671 0.0000 -0.8842
vn 0.6300 0.0000 -0.7766
vn 0.7694 0.0000 -0.6388
vn 0.8796 0.0000 -0.4757
vn 0.9560 0.0000 -0.2934
vn 0.9951 0.0000 -0.0992
vn 0.9951 0.0000 0.0992
vn 0.9560 0.0000 0.2934
vn 0.8796 0.0000 0.4757
vn 0.7694 0.0000 0.6388
vn 0.6300 0.0000 0.7766
vn 0.4671 0.0000 0.8842
vn 0.2872 0.0000 0.9579
vn 0.0969 0.0000 0.9953
vn -0.0969 0.0000 0.9953
vn -0.2872 0.0000 0.9579
vn -0.4671 0.0000 0.8842
vn -0.6300 0.0000 0.7766
vn -0.7694 0.0000 0.6388
vn -0.8796 0.0000 0.4757
vn -0.9560 0.0000 0.2934
vn -0.9951 0.0000 0.0992
vn -0.9951 0.0000 -0.0992
vn -0.9560 0.0000 -0.2934
vn -0.8796 0.0000 -0.4757
vn -0.7694 0.0000 -0.6388
vn -0.6300 0.0000 -0.7766
vn -0.4671 0.0000 -0.8842
vn -0.2872 0.0000 -0.9579
vn -0.0969 0.0000 -0.9953
vn 0.0000 1.0000 0.0000
vn 0.0000 -1.0000 0.0000
vn -0.0967 0.0000 0.9953
vn -0.2871 0.0000 0.9579
vn -0.6299 0.0000 0.7767
vn -0.7694 0.0000 0.6387
vn -0.9560 0.0000 0.2933
vn -0.9951 0.0000 0.0990
vn -0.9951 0.0000 -0.0990
vn -0.9560 0.0000 -0.2933
vn -0.7694 0.0000 -0.6387
vn -0.6299 0.0000 -0.7767
vn -0.2871 0.0000 -0.9579
vn -0.0971 0.0000 -0.9953
vn 0.0971 0.0000 -0.9953
vn 0.2871 0.0000 -0.9579
vn 0.6299 0.0000 -0.7767
vn 0.7694 0.0000 -0.6387
vn 0.9560 0.0000 -0.2933
vn 0.9951 0.0000 -0.0993
vn 0.9951 0.0000 0.0993
vn 0.9560 0.0000 0.2933
vn 0.7694 0.0000 0.6387
vn 0.6299 0.0000 0.7767
vn 0.2871 0.0000 0.9579
vn 0.0967 0.0000 0.9953
g Cylinder_Cylinder_white
usemtl white
s off
f 1/1/1 2/2/1 4/3/1 3/4/1
f 3/4/2 4/3/2 6/5/2 5/6/2
f 5/6/3 6/5/3 8/7/3 7/8/3
f 7/8/4 8/7/4 10/9/4 9/10/4
f 9/10/5 10/9/5 12/11/5 11/12/5
f 11/12/6 12/11/6 14/13/6 13/14/6
f 13/14/7 14/13/7 16/15/7 15/16/7
f 15/16/8 16/15/8 18/17/8 17/18/8
f 17/18/9 18/17/9 20/19/9 19/20/9
f 19/20/10 20/19/10 22/21/10 21/22/10
f 21/22/11 22/21/11 24/23/11 23/24/11
f 23/24/12 24/23/12 26/25/12 25/26/12
f 25/26/13 26/25/13 28/27/13 27/28/13
f 27/28/14 28/27/14 30/29/14 29/30/14
f 29/30/15 30/29/15 32/31/15 31/32/15
f 31/32/16 32/31/16 34/33/16 33/34/16
f 33/34/17 34/33/17 36/35/17 35/36/17
f 35/36/18 36/35/18 38/37/18 37/38/18
f 37/38/19 38/37/19 40/39/19 39/40/19
f 39/40/20 40/39/20 42/41/20 41/42/20
f 41/42/21 42/41/21 44/43/21 43/44/21
f 43/44/22 44/43/22 46/45/22 45/46/22
f 45/46/23 46/45/23 48/47/23 47/48/23
f 47/48/24 48/47/24 50/49/24 49/50/24
f 49/50/25 50/49/25 52/51/25 51/52/25
f 51/52/26 52/51/26 54/53/26 53/54/26
f 53/54/27 54/53/27 56/55/27 55/56/27
f 55/56/28 56/55/28 58/57/28 57/58/28
f 57/58/29 58/57/29 60/59/29 59/60/29
f 59/60/30 60/59/30 62/61/30 61/62/30
f 61/62/31 62/61/31 64/63/31 63/64/31
f 63/64/32 64/63/32 2/65/32 1/66/32
f 2/65/33 64/63/33 160/67/33 129/68/33
f 64/63/33 62/61/33 159/69/33 160/67/33
f 62/61/33 60/59/33 158/70/33 159/69/33
f 60/59/33 58/57/33 157/71/33 158/70/33
f 58/57/33 56/55/33 156/72/33 157/71/33
f 56/55/33 54/53/33 155/73/33 156/72/33
f 54/53/33 52/51/33 154/74/33 155/73/33
f 52/51/33 50/49/33 153/75/33 154/74/33
f 50/49/33 48/47/33 152/76/33 153/75/33
f 48/47/33 46/45/33 151/77/33 152/76/33
f 46/45/33 44/43/33 150/78/33 151/77/33
f 44/43/33 42/41/33 149/79/33 150/78/33
f 42/41/33 40/39/33 148/80/33 149/79/33
f 40/39/33 38/37/33 147/81/33 148/80/33
f 38/37/33 36/35/33 146/82/33 147/81/33
f 36/35/33 34/33/33 145/83/33 146/82/33
f 34/33/33 32/31/33 144/84/33 145/83/33
f 32/31/33 30/29/33 143/85/33 144/84/33
f 30/29/33 28/27/33 142/86/33 143/85/33
f 28/27/33 26/25/33 141/87/33 142/86/33
f 26/25/33 24/23/33 140/88/33 141/87/33
f 24/23/33 22/21/33 139/89/33 140/88/33
f 22/21/33 20/19/33 138/90/33 139/89/33
f 20/19/33 18/17/33 137/91/33 138/90/33
f 18/17/33 16/15/33 136/92/33 137/91/33
f 16/15/33 14/13/33 135/93/33 136/92/33
f 14/13/33 12/11/33 134/94/33 135/93/33
f 12/11/33 10/9/33 133/95/33 134/94/33
f 10/9/33 8/7/33 132/96/33 133/95/33
f 8/7/33 6/5/33 131/97/33 132/96/33
f 6/5/33 4/3/33 130/98/33 131/97/33
f 4/3/33 2/2/33 129/99/33 130/98/33
f 63/64/34 1/66/34 161/100/34 192/101/34
f 61/62/34 63/64/34 192/101/34 191/102/34
f 59/60/34 61/62/34 191/102/34 190/103/34
f 57/58/34 59/60/34 190/103/34 189/104/34
f 55/56/34 57/58/34 189/104/34 188/105/34
f 53/54/34 55/56/34 188/105/34 187/106/34
f 51/52/34 53/54/34 187/106/34 186/107/34
f 49/50/34 51/52/34 186/107/34 185/108/34
f 47/48/34 49/50/34 185/108/34 184/109/34
f 45/46/34 47/48/34 184/109/34 183/110/34
f 43/44/34 45/46/34 183/110/34 182/111/34
f 41/42/34 43/44/34 182/111/34 181/112/34
f 39/40/34 41/42/34 181/112/34 180/113/34
f 37/38/34 39/40/34 180/113/34 179/114/34
f 35/36/34 37/38/34 179/114/34 178/115/34
f 33/34/34 35/36/34 178/115/34 177/116/34
f 31/32/34 33/34/34 177/116/34 176/117/34
f 29/30/34 31/32/34 176/117/34 175/118/34
f 27/28/34 29/30/34 175/118/34 174/119/34
f 25/26/34 27/28/34 174/119/34 173/120/34
f 23/24/34 25/26/34 173/120/34 172/121/34
f 21/22/34 23/24/34 172/121/34 171/122/34
f 19/20/34 21/22/34 171/122/34 170/123/34
f 17/18/34 19/20/34 170/123/34 169/124/34
f 15/16/34 17/18/34 169/124/34 168/125/34
f 13/14/34 15/16/34 168/125/34 167/126/34
f 11/12/34 13/14/34 167/126/34 166/127/34
f 9/10/34 11/12/34 166/127/34 165/128/34
f 7/8/34 9/10/34 165/128/34 164/129/34
f 5/6/34 7/8/34 164/129/34 163/130/34
f 3/4/34 5/6/34 163/130/34 162/131/34
f 1/1/34 3/4/34 162/131/34 161/132/34
g Cylinder_Cylinder_brown
usemtl brown
f 65/133/35 67/134/35 68/135/35 66/136/35
f 67/134/36 69/137/36 70/138/36 68/135/36
f 69/137/19 71/139/19 72/140/19 70/138/19
f 71/139/37 73/141/37 74/142/37 72/140/37
f 73/141/38 75/143/38 76/144/38 74/142/38
f 75/143/22 77/145/22 78/146/22 76/144/22
f 77/145/39 79/147/39 80/148/39 78/146/39
f 79/147/40 81/149/40 82/150/40 80/148/40
f 81/149/41 83/151/41 84/152/41 82/150/41
f 83/151/42 85/153/42 86/154/42 84/152/42
f 85/153/27 87/155/27 88/156/27 86/154/27
f 87/155/43 89/157/43 90/158/43 88/156/43
f 89/157/44 91/159/44 92/160/44 90/158/44
f 91/159/30 93/161/30 94/162/30 92/160/30
f 93/161/45 95/163/45 96/164/45 94/162/45
f 95/163/46 97/165/46 98/166/46 96/164/46
f 97/165/47 99/167/47 100/168/47 98/166/47
f 99/167/48 101/169/48 102/170/48 100/168/48
f 101/169/3 103/171/3 104/172/3 102/170/3
f 103/171/49 105/173/49 106/174/49 104/172/49
f 105/173/50 107/175/50 108/176/50 106/174/50
f 107/175/6 109/177/6 110/178/6 108/176/6
f 109/177/51 111/179/51 112/180/51 110/178/51
f 111/179/52 113/181/52 114/182/52 112/180/52
f 113/181/53 115/183/53 116/184/53 114/182/53
f 115/183/54 117/185/54 118/186/54 116/184/54
f 117/185/11 119/187/11 120/188/11 118/186/11
f 119/187/55 121/189/55 122/190/55 120/188/55
f 121/189/56 123/191/56 124/192/56 122/190/56
f 123/191/14 125/193/14 126/194/14 124/192/14
f 125/193/57 127/195/57 128/196/57 126/194/57
f 127/195/58 65/197/58 66/198/58 128/196/58
f 161/132/34 162/131/34 67/134/34 65/133/34
f 130/98/33 129/99/33 66/136/33 68/135/33
f 162/131/34 163/130/34 69/137/34 67/134/34
f 131/97/33 130/98/33 68/135/33 70/138/33
f 163/130/34 164/129/34 71/139/34 69/137/34
f 132/96/33 131/97/33 70/138/33 72/140/33
f 164/129/34 165/128/34 73/141/34 71/139/34
f 133/95/33 132/96/33 72/140/33 74/142/33
f 165/128/34 166/127/34 75/143/34 73/141/34
f 134/94/33 133/95/33 74/142/33 76/144/33
f 166/127/34 167/126/34 77/145/34 75/143/34
f 135/93/33 134/94/33 76/144/33 78/146/33
f 167/126/34 168/125/34 79/147/34 77/145/34
f 136/92/33 135/93/33 78/146/33 80/148/33
f 168/125/34 169/124/34 81/149/34 79/147/34
f 137/91/33 136/92/33 80/148/33 82/150/33
f 169/124/34 170/123/34 83/151/34 81/149/34
f 138/90/33 137/91/33 82/150/33 84/152/33
f 170/123/34 171/122/34 85/153/34 83/151/34
f 139/89/33 138/90/33 84/152/33 86/154/33
f 171/122/34 172/121/34 87/155/34 85/153/34
f 140/88/33 139/89/33 86/154/33 88/156/33
f 172/121/34 173/120/34 89/157/34 87/155/34
f 141/87/33 140/88/33 88/156/33 90/158/33
f 173/120/34 174/119/34 91/159/34 89/157/34
f 142/86/33 141/87/33 90/158/33 92/160/33
f 174/119/34 175/118/34 93/161/34 91/159/34
f 143/85/33 142/86/33 92/160/33 94/162/33
f 175/118/34 176/117/34 95/163/34 93/161/34
f 144/84/33 143/85/33 94/162/33 96/164/33
f 176/117/34 177/116/34 97/165/34 95/163/34
f 145/83/33 144/84/33 96/164/33 98/166/33
f 177/116/34 178/115/34 99/167/34 97/165/34
f 146/82/33 145/83/33 98/166/33 100/168/33
f 178/115/34 179/114/34 101/169/34 99/167/34
f 147/81/33 146/82/33 100/168/33 102/170/33
f 179/114/34 180/113/34 103/171/34 101/169/34
f 148/80/33 147/81/33 102/170/33 104/172/33
f 180/113/34 181/112/34 105/173/34 103/171/34
f 149/79/33 148/80/33 104/172/33 106/174/33
f 181/112/34 182/111/34 107/175/34 105/173/34
f 150/78/33 149/79/33 106/174/33 108/176/33
f 182/111/34 183/110/34 109/177/34 107/175/34
f 151/77/33 150/78/33 108/176/33 110/178/33
f 183/110/34 184/109/34 111/179/34 109/177/34
f 152/76/33 151/77/33 110/178/33 112/180/33
f 184/109/34 185/108/34 113/181/34 111/179/34
f 153/75/33 152/76/33 112/180/33 114/182/33
f 185/108/34 186/107/34 115/183/34 113/181/34
f 154/74/33 153/75/33 114/182/33 116/184/33
f 186/107/34 187/106/34 117/185/34 115/183/34
f 155/73/33 154/74/33 116/184/33 118/186/33
f 187/106/34 188/105/34 119/187/34 117/185/34
f 156/72/33 155/73/33 118/186/33 120/188/33
f 188/105/34 189/104/34 121/189/34 119/187/34
f 157/71/33 156/72/33 120/188/33 122/190/33
f 189/104/34 190/103/34 123/191/34 121/189/34
f 158/70/33 157/71/33 122/190/33 124/192/33
f 190/103/34 191/102/34 125/193/34 123/191/34
f 159/69/33 158/70/33 124/192/33 126/194/33
f 191/102/34 192/101/34 127/195/34 125/193/34
f 160/67/33 159/69/33 126/194/33 128/196/33
f 192/101/34 161/100/34 65/197/34 127/195/34
f 129/68/33 160/67/33 128/196/33 66/198/33
